<mxfile host="app.diagrams.net" modified="2023-11-01T15:36:15.513Z" agent="Mozilla/5.0 (Windows NT 10.0; Win64; x64) AppleWebKit/537.36 (KHTML, like Gecko) Chrome/118.0.0.0 Safari/537.36" etag="m6vwSenUL-UByhrzgW0k" version="22.0.8" type="device">
  <diagram name="Page-1" id="oxnB58dVDt73DEdPozeP">
    <mxGraphModel dx="2736" dy="746" grid="1" gridSize="10" guides="1" tooltips="1" connect="1" arrows="1" fold="1" page="1" pageScale="1" pageWidth="850" pageHeight="1100" math="0" shadow="0">
      <root>
        <mxCell id="0" />
        <mxCell id="1" parent="0" />
        <mxCell id="cF96Uo_Qj4vGqM1W59n--3" value="" style="edgeStyle=orthogonalEdgeStyle;rounded=0;orthogonalLoop=1;jettySize=auto;html=1;" edge="1" parent="1" source="cF96Uo_Qj4vGqM1W59n--1" target="cF96Uo_Qj4vGqM1W59n--2">
          <mxGeometry relative="1" as="geometry" />
        </mxCell>
        <mxCell id="cF96Uo_Qj4vGqM1W59n--1" value="Start" style="rounded=1;whiteSpace=wrap;html=1;" vertex="1" parent="1">
          <mxGeometry x="370" y="80" width="130" height="70" as="geometry" />
        </mxCell>
        <mxCell id="cF96Uo_Qj4vGqM1W59n--5" value="" style="edgeStyle=orthogonalEdgeStyle;rounded=0;orthogonalLoop=1;jettySize=auto;html=1;" edge="1" parent="1" source="cF96Uo_Qj4vGqM1W59n--2" target="cF96Uo_Qj4vGqM1W59n--4">
          <mxGeometry relative="1" as="geometry" />
        </mxCell>
        <mxCell id="cF96Uo_Qj4vGqM1W59n--2" value="Insert Card" style="rhombus;whiteSpace=wrap;html=1;rounded=1;" vertex="1" parent="1">
          <mxGeometry x="357.5" y="210" width="155" height="135" as="geometry" />
        </mxCell>
        <mxCell id="cF96Uo_Qj4vGqM1W59n--7" value="" style="edgeStyle=orthogonalEdgeStyle;rounded=0;orthogonalLoop=1;jettySize=auto;html=1;" edge="1" parent="1" source="cF96Uo_Qj4vGqM1W59n--4" target="cF96Uo_Qj4vGqM1W59n--6">
          <mxGeometry relative="1" as="geometry" />
        </mxCell>
        <mxCell id="cF96Uo_Qj4vGqM1W59n--9" value="" style="edgeStyle=orthogonalEdgeStyle;rounded=0;orthogonalLoop=1;jettySize=auto;html=1;" edge="1" parent="1" source="cF96Uo_Qj4vGqM1W59n--4" target="cF96Uo_Qj4vGqM1W59n--8">
          <mxGeometry relative="1" as="geometry" />
        </mxCell>
        <mxCell id="cF96Uo_Qj4vGqM1W59n--4" value="Check if the card is inserted&amp;nbsp;" style="rounded=1;whiteSpace=wrap;html=1;" vertex="1" parent="1">
          <mxGeometry x="362.5" y="390" width="145" height="70" as="geometry" />
        </mxCell>
        <mxCell id="cF96Uo_Qj4vGqM1W59n--6" value="End" style="shape=hexagon;perimeter=hexagonPerimeter2;whiteSpace=wrap;html=1;fixedSize=1;rounded=1;" vertex="1" parent="1">
          <mxGeometry x="540" y="510" width="120" height="80" as="geometry" />
        </mxCell>
        <mxCell id="cF96Uo_Qj4vGqM1W59n--13" value="" style="edgeStyle=orthogonalEdgeStyle;rounded=0;orthogonalLoop=1;jettySize=auto;html=1;" edge="1" parent="1" source="cF96Uo_Qj4vGqM1W59n--8" target="cF96Uo_Qj4vGqM1W59n--12">
          <mxGeometry relative="1" as="geometry" />
        </mxCell>
        <mxCell id="cF96Uo_Qj4vGqM1W59n--8" value="Enter Pin" style="shape=hexagon;perimeter=hexagonPerimeter2;whiteSpace=wrap;html=1;fixedSize=1;rounded=1;" vertex="1" parent="1">
          <mxGeometry x="220" y="510" width="120" height="80" as="geometry" />
        </mxCell>
        <mxCell id="cF96Uo_Qj4vGqM1W59n--10" value="No" style="text;html=1;align=center;verticalAlign=middle;resizable=0;points=[];autosize=1;strokeColor=none;fillColor=none;" vertex="1" parent="1">
          <mxGeometry x="600" y="438" width="40" height="30" as="geometry" />
        </mxCell>
        <mxCell id="cF96Uo_Qj4vGqM1W59n--11" value="Yes" style="text;html=1;align=center;verticalAlign=middle;resizable=0;points=[];autosize=1;strokeColor=none;fillColor=none;" vertex="1" parent="1">
          <mxGeometry x="240" y="438" width="40" height="30" as="geometry" />
        </mxCell>
        <mxCell id="cF96Uo_Qj4vGqM1W59n--15" value="" style="edgeStyle=orthogonalEdgeStyle;rounded=0;orthogonalLoop=1;jettySize=auto;html=1;" edge="1" parent="1" source="cF96Uo_Qj4vGqM1W59n--12" target="cF96Uo_Qj4vGqM1W59n--14">
          <mxGeometry relative="1" as="geometry" />
        </mxCell>
        <mxCell id="cF96Uo_Qj4vGqM1W59n--19" value="" style="edgeStyle=orthogonalEdgeStyle;rounded=0;orthogonalLoop=1;jettySize=auto;html=1;" edge="1" parent="1" source="cF96Uo_Qj4vGqM1W59n--12" target="cF96Uo_Qj4vGqM1W59n--18">
          <mxGeometry relative="1" as="geometry" />
        </mxCell>
        <mxCell id="cF96Uo_Qj4vGqM1W59n--22" value="" style="edgeStyle=orthogonalEdgeStyle;rounded=0;orthogonalLoop=1;jettySize=auto;html=1;" edge="1" parent="1" source="cF96Uo_Qj4vGqM1W59n--12" target="cF96Uo_Qj4vGqM1W59n--21">
          <mxGeometry relative="1" as="geometry" />
        </mxCell>
        <mxCell id="cF96Uo_Qj4vGqM1W59n--12" value="Chose Service" style="rhombus;whiteSpace=wrap;html=1;rounded=1;" vertex="1" parent="1">
          <mxGeometry x="205" y="640" width="150" height="120" as="geometry" />
        </mxCell>
        <mxCell id="cF96Uo_Qj4vGqM1W59n--40" value="" style="edgeStyle=orthogonalEdgeStyle;rounded=0;orthogonalLoop=1;jettySize=auto;html=1;" edge="1" parent="1" source="cF96Uo_Qj4vGqM1W59n--14" target="cF96Uo_Qj4vGqM1W59n--39">
          <mxGeometry relative="1" as="geometry" />
        </mxCell>
        <mxCell id="cF96Uo_Qj4vGqM1W59n--14" value="Withdraw money" style="rounded=1;whiteSpace=wrap;html=1;" vertex="1" parent="1">
          <mxGeometry x="210" y="810" width="140" height="80" as="geometry" />
        </mxCell>
        <mxCell id="cF96Uo_Qj4vGqM1W59n--26" value="" style="edgeStyle=orthogonalEdgeStyle;rounded=0;orthogonalLoop=1;jettySize=auto;html=1;" edge="1" parent="1" source="cF96Uo_Qj4vGqM1W59n--18" target="cF96Uo_Qj4vGqM1W59n--25">
          <mxGeometry relative="1" as="geometry" />
        </mxCell>
        <mxCell id="cF96Uo_Qj4vGqM1W59n--18" value="Check Balance" style="shape=step;perimeter=stepPerimeter;whiteSpace=wrap;html=1;fixedSize=1;rounded=1;" vertex="1" parent="1">
          <mxGeometry x="30" y="660" width="120" height="80" as="geometry" />
        </mxCell>
        <mxCell id="cF96Uo_Qj4vGqM1W59n--24" value="" style="edgeStyle=orthogonalEdgeStyle;rounded=0;orthogonalLoop=1;jettySize=auto;html=1;" edge="1" parent="1" source="cF96Uo_Qj4vGqM1W59n--21" target="cF96Uo_Qj4vGqM1W59n--23">
          <mxGeometry relative="1" as="geometry" />
        </mxCell>
        <mxCell id="cF96Uo_Qj4vGqM1W59n--21" value="Exit" style="shape=step;perimeter=stepPerimeter;whiteSpace=wrap;html=1;fixedSize=1;rounded=1;rotation=0;" vertex="1" parent="1">
          <mxGeometry x="410" y="660" width="120" height="80" as="geometry" />
        </mxCell>
        <mxCell id="cF96Uo_Qj4vGqM1W59n--23" value="End" style="rhombus;whiteSpace=wrap;html=1;rounded=1;" vertex="1" parent="1">
          <mxGeometry x="590" y="645" width="130" height="110" as="geometry" />
        </mxCell>
        <mxCell id="cF96Uo_Qj4vGqM1W59n--29" value="" style="edgeStyle=orthogonalEdgeStyle;rounded=0;orthogonalLoop=1;jettySize=auto;html=1;" edge="1" parent="1" source="cF96Uo_Qj4vGqM1W59n--25" target="cF96Uo_Qj4vGqM1W59n--14">
          <mxGeometry relative="1" as="geometry" />
        </mxCell>
        <mxCell id="cF96Uo_Qj4vGqM1W59n--36" value="" style="edgeStyle=orthogonalEdgeStyle;rounded=0;orthogonalLoop=1;jettySize=auto;html=1;" edge="1" parent="1" source="cF96Uo_Qj4vGqM1W59n--25" target="cF96Uo_Qj4vGqM1W59n--35">
          <mxGeometry relative="1" as="geometry" />
        </mxCell>
        <mxCell id="cF96Uo_Qj4vGqM1W59n--44" value="" style="edgeStyle=orthogonalEdgeStyle;rounded=0;orthogonalLoop=1;jettySize=auto;html=1;" edge="1" parent="1" source="cF96Uo_Qj4vGqM1W59n--25" target="cF96Uo_Qj4vGqM1W59n--43">
          <mxGeometry relative="1" as="geometry" />
        </mxCell>
        <mxCell id="cF96Uo_Qj4vGqM1W59n--25" value="Balance Shown" style="rhombus;whiteSpace=wrap;html=1;rounded=1;" vertex="1" parent="1">
          <mxGeometry x="25" y="810" width="130" height="120" as="geometry" />
        </mxCell>
        <mxCell id="cF96Uo_Qj4vGqM1W59n--37" style="edgeStyle=orthogonalEdgeStyle;rounded=0;orthogonalLoop=1;jettySize=auto;html=1;entryX=1;entryY=0.5;entryDx=0;entryDy=0;" edge="1" parent="1" source="cF96Uo_Qj4vGqM1W59n--35" target="cF96Uo_Qj4vGqM1W59n--12">
          <mxGeometry relative="1" as="geometry" />
        </mxCell>
        <mxCell id="cF96Uo_Qj4vGqM1W59n--35" value="Go Back" style="shape=hexagon;perimeter=hexagonPerimeter2;whiteSpace=wrap;html=1;fixedSize=1;rounded=1;" vertex="1" parent="1">
          <mxGeometry x="30" y="970" width="120" height="80" as="geometry" />
        </mxCell>
        <mxCell id="cF96Uo_Qj4vGqM1W59n--42" value="" style="edgeStyle=orthogonalEdgeStyle;rounded=0;orthogonalLoop=1;jettySize=auto;html=1;" edge="1" parent="1" source="cF96Uo_Qj4vGqM1W59n--39" target="cF96Uo_Qj4vGqM1W59n--41">
          <mxGeometry relative="1" as="geometry" />
        </mxCell>
        <mxCell id="cF96Uo_Qj4vGqM1W59n--46" value="" style="edgeStyle=orthogonalEdgeStyle;rounded=0;orthogonalLoop=1;jettySize=auto;html=1;" edge="1" parent="1" source="cF96Uo_Qj4vGqM1W59n--39" target="cF96Uo_Qj4vGqM1W59n--45">
          <mxGeometry relative="1" as="geometry" />
        </mxCell>
        <mxCell id="cF96Uo_Qj4vGqM1W59n--39" value="Amount to withdraw" style="rhombus;whiteSpace=wrap;html=1;rounded=1;" vertex="1" parent="1">
          <mxGeometry x="405" y="790" width="130" height="120" as="geometry" />
        </mxCell>
        <mxCell id="cF96Uo_Qj4vGqM1W59n--41" value="End" style="rounded=1;whiteSpace=wrap;html=1;" vertex="1" parent="1">
          <mxGeometry x="395" y="975" width="150" height="70" as="geometry" />
        </mxCell>
        <mxCell id="cF96Uo_Qj4vGqM1W59n--43" value="End" style="shape=hexagon;perimeter=hexagonPerimeter2;whiteSpace=wrap;html=1;fixedSize=1;rounded=1;" vertex="1" parent="1">
          <mxGeometry x="-130" y="830" width="120" height="80" as="geometry" />
        </mxCell>
        <mxCell id="cF96Uo_Qj4vGqM1W59n--47" style="edgeStyle=orthogonalEdgeStyle;rounded=0;orthogonalLoop=1;jettySize=auto;html=1;" edge="1" parent="1" source="cF96Uo_Qj4vGqM1W59n--45">
          <mxGeometry relative="1" as="geometry">
            <mxPoint x="770" y="850" as="targetPoint" />
          </mxGeometry>
        </mxCell>
        <mxCell id="cF96Uo_Qj4vGqM1W59n--45" value="Go Back" style="shape=hexagon;perimeter=hexagonPerimeter2;whiteSpace=wrap;html=1;fixedSize=1;rounded=1;" vertex="1" parent="1">
          <mxGeometry x="580" y="805" width="140" height="90" as="geometry" />
        </mxCell>
        <mxCell id="cF96Uo_Qj4vGqM1W59n--50" value="" style="endArrow=classic;html=1;rounded=0;" edge="1" parent="1">
          <mxGeometry width="50" height="50" relative="1" as="geometry">
            <mxPoint x="760" y="850" as="sourcePoint" />
            <mxPoint x="760" y="760" as="targetPoint" />
          </mxGeometry>
        </mxCell>
        <mxCell id="cF96Uo_Qj4vGqM1W59n--52" value="" style="endArrow=classic;html=1;rounded=0;" edge="1" parent="1">
          <mxGeometry width="50" height="50" relative="1" as="geometry">
            <mxPoint x="760" y="770" as="sourcePoint" />
            <mxPoint x="370" y="770" as="targetPoint" />
          </mxGeometry>
        </mxCell>
      </root>
    </mxGraphModel>
  </diagram>
</mxfile>
